<?xml version="1.0" encoding="UTF-8" standalone="no"?>
<!-- Created with Inkscape (http://www.inkscape.org/) -->

<svg
   version="1.1"
   id="svg1"
   width="1024"
   height="544"
   viewBox="0 0 1024 544"
   sodipodi:docname="cgpacalclogo.svg"
   inkscape:version="1.4 (86a8ad7, 2024-10-11)"
   inkscape:export-filename="cgpacalclogo.png"
   inkscape:export-xdpi="96"
   inkscape:export-ydpi="96"
   xmlns:inkscape="http://www.inkscape.org/namespaces/inkscape"
   xmlns:sodipodi="http://sodipodi.sourceforge.net/DTD/sodipodi-0.dtd"
   xmlns="http://www.w3.org/2000/svg"
   xmlns:svg="http://www.w3.org/2000/svg">
  <defs
     id="defs1" />
  <sodipodi:namedview
     id="namedview1"
     pagecolor="#ffffff"
     bordercolor="#999999"
     borderopacity="1"
     inkscape:showpageshadow="2"
     inkscape:pageopacity="0"
     inkscape:pagecheckerboard="0"
     inkscape:deskcolor="#d1d1d1"
     inkscape:zoom="2.0349265"
     inkscape:cx="512.05781"
     inkscape:cy="272"
     inkscape:window-width="2560"
     inkscape:window-height="1346"
     inkscape:window-x="-11"
     inkscape:window-y="-11"
     inkscape:window-maximized="1"
     inkscape:current-layer="g1" />
  <g
     inkscape:groupmode="layer"
     inkscape:label="Image"
     id="g1">
    <path
       style="fill:#7c24d9;fill-opacity:1"
       d="m 341.73447,512.91775 c -9.97324,-2.36503 -19.06831,-10.13269 -23.8642,-20.38129 l -2.97853,-6.36496 0.08,-208.59019 c 0.044,-114.72461 0.35008,-210.050695 0.68016,-211.835752 1.2335,-6.67066 6.6152,-16.189088 12.29489,-21.745558 6.47904,-6.338483 13.99374,-10.320618 22.55319,-11.951231 4.38945,-0.83621 50.29003,-1.06327 171,-0.845898 l 165,0.297129 5.76825,2.70303 c 6.99279,3.276857 15.42035,11.491881 18.77036,18.29697 l 2.46139,5 0.25925,210.46226 c 0.28415,230.67247 0.65221,215.36038 -5.42591,225.73191 -3.73297,6.36983 -13.38612,14.78185 -20.04876,17.47104 L 682.5,513.5 514,513.65535 c -96.00441,0.0885 -170.12009,-0.22884 -172.26553,-0.7376 z m 239.76789,-48.06537 c 4.1029,-2.25157 6.43714,-5.01717 8.04883,-9.53618 1.77036,-4.96395 2.09692,-150.38687 0.35214,-156.8162 -1.36991,-5.04799 -6.25736,-10.22584 -10.85897,-11.5042 -2.15233,-0.59793 -28.26145,-0.98684 -66.47864,-0.99022 -60.75153,-0.005 -63.07528,0.0633 -67,1.97958 -2.23614,1.09184 -5.19072,3.64637 -6.56572,5.67673 l -2.5,3.69157 v 78.57327 c 0,76.77478 0.0458,78.65099 2,81.96874 2.47417,4.20048 6.19964,7.0506 10.6228,8.12683 1.85746,0.45195 31.7272,0.74432 66.3772,0.64972 56.42038,-0.15405 63.31356,-0.34409 66.00236,-1.81964 z M 459.65499,430.17126 C 458.35602,428.73592 458,426.26959 458,418.70644 458,407.08663 458.09087,407 470.27927,407 c 11.37688,0 12.04812,0.74182 11.57243,12.78918 C 481.38368,431.64211 481.03727,432 470.03254,432 c -7.18029,0 -9.01519,-0.32335 -10.37755,-1.82874 z m 44,0 C 502.37023,428.75161 502,426.30685 502,419.24269 502,407.35706 502.3485,407 513.94898,407 525.25526,407 525.5,407.26975 525.5,419.73137 525.5,431.52788 525.03683,432 513.46386,432 c -6.62936,0 -8.46332,-0.34192 -9.80887,-1.82874 z m 43.78614,0.40937 c -2.72833,-1.99499 -3.4721,-17.35822 -1.02142,-21.09843 1.53825,-2.34768 2.12916,-2.4822 10.90334,-2.4822 5.88207,0 9.71609,0.43914 10.47695,1.2 0.77746,0.77746 1.2,4.8144 1.2,11.46482 0,9.12506 -0.21477,10.37975 -1.93426,11.3 -2.96607,1.58739 -17.31238,1.30653 -19.62461,-0.38419 z M 459.75,386.9199 c -1.48656,-0.86584 -1.75,-2.56235 -1.75,-11.26959 0,-6.63913 0.42276,-10.67307 1.2,-11.45031 1.44856,-1.44856 18.56908,-1.63111 20.8,-0.22179 2.3099,1.45922 2.75886,18.21468 0.57728,21.54419 -1.52541,2.32807 -2.15009,2.47576 -10.35033,2.44719 -4.79982,-0.0167 -9.51445,-0.48908 -10.47695,-1.04969 z m 43.82143,-0.49133 C 501.5896,384.44675 501.28332,366.11668 503.2,364.2 c 0.76086,-0.76086 4.59488,-1.2 10.47695,-1.2 8.74438,0 9.36921,0.14081 10.88412,2.45286 2.24943,3.43307 1.3244,19.4265 -1.2317,21.29556 -2.62113,1.91662 -17.76666,1.67144 -19.75794,-0.31985 z m 42.98527,-0.65108 C 545.46055,384.21251 545,381.17193 545,375.5 c 0,-11.79094 0.70093,-12.5 12.3567,-12.5 5.8559,0 9.68307,0.43977 10.4433,1.2 0.77746,0.77746 1.2,4.8144 1.2,11.46482 0,12.34634 0.0112,12.33518 -12.37755,12.33518 -7.65938,0 -8.66448,-0.22193 -10.06575,-2.22251 z m -86.04979,-45.77963 c -2.45477,-0.42239 -3.05672,-1.13713 -3.7899,-4.5 -1.04993,-4.81574 -0.31265,-23.30222 0.98093,-24.5958 0.54308,-0.54308 23.60382,-0.81338 56.36062,-0.66062 L 569.5,310.5 l 0.27758,14.2708 c 0.24571,12.63219 0.0836,14.34525 -1.41217,14.91922 -1.97836,0.75917 -103.55077,1.04906 -107.8585,0.30784 z m 171.10631,-69.28221 c 5.59364,-5.12619 5.60178,-9.27671 0.049,-24.96565 -2.48194,-7.0125 -4.08966,-12.75 -3.57271,-12.75 1.80626,0 4.90307,-6.53217 4.90677,-10.35 0.003,-3.07263 -0.70611,-4.55985 -3.51188,-7.36562 l -3.51561,-3.51561 0.26561,-27.56461 0.26562,-27.5646 9.46361,-4.07326 c 6.83973,-2.94391 9.88389,-4.82205 10.97946,-6.77395 3.09019,-5.50555 2.60286,-5.77038 -66.94307,-36.37939 -35.475,-15.61349 -65.73688,-28.393743 -67.24863,-28.400562 -1.51175,-0.0068 -6.68675,1.7495 -11.5,3.902931 C 496.43812,87.068759 470,98.733914 442.5,110.83789 415,122.94187 390.32474,133.81774 387.66609,135.00648 381.70983,137.66965 379,140.27706 379,143.34501 c 0,3.4277 1.88855,4.63377 19,12.13387 39.59178,17.35341 84.73412,37.26369 97,42.78237 8.84243,3.9784 14.88002,6.1008 17.5,6.1518 2.72008,0.0529 7.35978,-1.41485 14.5,-4.58712 C 553.0028,188.27333 611.98267,163 612.93992,163 613.65797,163 614,170.93897 614,187.60608 v 24.60608 l -2.42761,1.90956 c -5.09864,4.01059 -5.63916,12.35615 -1.11635,17.23635 l 2.33184,2.5161 -4.39394,12.31117 c -4.7545,13.3214 -5.18427,16.38565 -2.91392,20.77602 2.86996,5.5499 5.97271,7.03864 14.66952,7.03864 7.51284,0 8.04674,-0.15296 11.46368,-3.28435 z M 542.76008,254.4696 c 30.88569,-4.4964 51.04371,-13.90163 54.20727,-25.29177 C 598.03771,225.32405 598.43712,185 597.40492,185 c -0.32729,0 -18.94681,7.875 -41.3767,17.5 -22.42989,9.625 -41.92219,17.5 -43.31623,17.5 -2.54283,0 -10.6214,-3.30467 -42.21199,-17.26749 C 439.46559,189.01552 427.94451,184 427.4698,184 427.21141,184 427,194.14735 427,206.54966 c 0,17.50051 0.31676,23.1543 1.41468,25.25 6.13566,11.71173 29.74927,20.55525 64.58532,24.18782 11.34397,1.18291 36.47393,0.41634 49.76008,-1.51788 z"
       id="path1" />
  </g>
</svg>
