<?xml version="1.0" encoding="UTF-8" standalone="no"?>
<!-- Created with Inkscape (http://www.inkscape.org/) -->

<svg
   width="222.45741"
   height="252.21806"
   viewBox="0 0 58.858523 66.732696"
   version="1.1"
   id="svg1"
   xml:space="preserve"
   xmlns="http://www.w3.org/2000/svg"
   xmlns:svg="http://www.w3.org/2000/svg"><defs
     id="defs1" /><g
     id="layer1"
     transform="matrix(0.33313509,0,0,0.33313509,-14.641734,-10.704644)"><g
       id="g1"
       transform="matrix(1.4795526,0,0,1.4795526,-64.415777,-30.872994)"
       style="display:inline"><path
         id="path1"
         style="fill:#473992;stroke:none"
         d="m 133.58875,42.587581 c -0.56026,-0.01337 -1.09827,0.01659 -1.60611,0.100253 -4.62905,0.762615 -9.20881,2.344059 -13.75833,3.481441 -9.971,2.492758 -19.926018,5.047657 -29.897918,7.540625 -3.53409,0.883522 -7.048984,1.827876 -10.583334,2.711462 -1.17342,0.293361 -3.231547,0.414138 -3.921207,1.548743 -1.08436,1.783967 -0.312126,5.826244 -0.312126,7.877039 v 20.108333 21.696353 c 0,4.2921 -0.332188,8.7199 0.379822,12.96406 3.18826,19.00488 16.976254,32.83103 32.428513,43.1276 6.2641,4.17406 12.853,7.81454 19.57916,11.17762 2.03716,1.01858 5.30499,3.4356 7.67292,3.0024 2.91992,-0.53415 6.14201,-2.64469 8.73125,-4.0442 4.46149,-2.41148 8.97258,-4.71518 13.22917,-7.48998 15.8309,-10.31987 31.33011,-23.23644 35.60661,-42.59844 2.49286,-11.28648 1.17047,-23.68067 1.17047,-35.18958 V 66.905477 c 0,-2.275119 0.85014,-6.698347 -0.27182,-8.702311 -0.68539,-1.224214 -2.46915,-1.408119 -3.69693,-1.715141 -3.442,-0.860703 -6.8724,-1.768013 -10.31875,-2.60811 -10.69421,-2.606866 -21.33534,-5.4377 -32.01458,-8.107515 -3.47756,-0.869393 -8.49503,-3.091245 -12.41681,-3.184819 z m -0.81236,15.948898 c 2.15819,0 4.59553,1.427739 6.61458,2.107365 5.50807,1.854069 10.9146,3.999981 16.40417,5.906099 3.53855,1.228671 7.06516,2.495536 10.58333,3.781165 1.0674,0.390044 3.06008,0.651462 3.69177,1.704805 0.67945,1.132973 -0.76102,1.778929 -1.5751,2.118217 -1.57256,0.655403 -5.51263,1.516559 -6.00118,3.346566 -0.78317,2.933623 -0.77413,9.46415 -5.2e-4,12.400276 0.26829,1.018238 1.25918,1.586335 1.44229,2.669605 0.26904,1.59168 -1.1399,2.524897 -1.04696,3.972367 0.132,2.05605 2.43225,5.731726 1.36477,7.633646 -1.06686,1.90082 -5.97645,1.56222 -6.7076,-0.49765 -0.78042,-2.19866 1.41335,-5.139176 1.4397,-7.404196 0.0194,-1.66576 -1.24338,-2.742854 -0.4656,-4.498434 1.82805,-4.126218 0.97927,-9.505637 0.97927,-14.022916 -2.48578,-0.217057 -5.02559,-1.377306 -7.40834,-2.109949 -4.32096,-1.328601 -8.64754,-2.640908 -12.96458,-3.982186 -1.87781,-0.583427 -5.82298,-2.696283 -7.61245,-1.344104 -2.69524,2.0366 2.087,3.337862 3.37912,3.739307 5.91358,1.837323 11.83836,3.632853 17.72708,5.549015 -3.55393,2.871255 -9.77221,4.125975 -14.02292,5.820833 -1.6176,0.64497 -3.78524,1.913417 -5.55625,1.792139 -2.63287,-0.180303 -5.75924,-1.879439 -8.20208,-2.850472 -4.62529,-1.838566 -9.33565,-3.534571 -14.02292,-5.210018 -3.90026,-1.394133 -7.79098,-2.893703 -11.641662,-4.420402 -0.94707,-0.375494 -3.80592,-0.945857 -3.2644,-2.484603 0.40791,-1.15907 3.02341,-1.609559 4.05815,-1.992126 4.133102,-1.52812 8.276692,-3.046745 12.435412,-4.504118 4.69547,-1.645474 9.33723,-3.446221 14.02292,-5.119584 1.9286,-0.68875 4.27216,-2.100647 6.35,-2.100647 z m -23.01875,23.979415 c 5.22119,2.325278 10.79478,4.00229 16.13958,6.034773 2.18863,0.832281 5.28816,2.592687 7.67292,2.365747 2.1146,-0.20123 4.39248,-1.534596 6.35,-2.315104 5.13367,-2.046903 10.49865,-4.81135 15.875,-6.085416 0,3.174871 -0.0153,6.35018 0,9.525 0.008,1.72117 0.39971,3.075331 -0.85008,4.487581 -2.54151,2.87188 -6.9403,3.927005 -10.527,4.741315 -8.11356,1.84207 -17.1096,1.58981 -25.13542,-0.52814 -3.13201,-0.826491 -7.18324,-2.08328 -8.99738,-4.99659 -1.29718,-2.08314 -0.7922,-5.062707 -0.7922,-7.408333 0,-1.768981 -0.42308,-4.182028 0.26458,-5.820833 z m 0.43925,23.505026 c 1.40028,-0.0483 2.75375,0.0353 3.33313,0.55707 1.0831,0.97547 0.46095,4.48904 0.46095,5.83634 v 17.19791 c 0,2.43625 1.34095,11.16253 -1.85311,11.3652 -1.52838,0.097 -5.8052,0.69158 -6.94635,-0.44958 -1.10884,-1.10883 -0.46095,-4.68726 -0.46095,-6.15312 v -17.7276 c 0,-2.34607 -1.30228,-10.37686 1.85208,-10.39419 0.76665,-0.004 2.21397,-0.18378 3.61425,-0.23203 z m 42.68783,2.68924 c 2.09951,0.62154 1.86876,3.05529 3.27836,4.41368 1.11389,1.07342 4.47522,0.33532 5.1418,1.56632 0.66535,1.22874 -2.63447,3.24958 -3.04529,4.33875 -0.50927,1.35021 1.21033,4.0801 0.0207,5.10408 -1.08378,0.93283 -3.45312,-1.31066 -4.60179,-1.47639 -1.61278,-0.23271 -3.18238,2.26357 -4.71289,1.5999 -1.55677,-0.67507 0.15147,-3.70548 -0.10748,-4.88756 -0.2161,-0.98648 -1.39218,-1.76558 -2.05362,-2.4567 -0.4668,-0.48776 -1.35008,-1.25459 -1.12913,-2.03295 0.32245,-1.13588 3.60815,-0.87071 4.53564,-1.41025 1.4182,-0.82498 2.07383,-3.3161 2.67373,-4.75888 z m -19.84375,0.2434 c 0.82837,-0.122 1.18184,1.03762 1.43506,1.60868 0.46715,1.05357 0.87947,2.4822 2.019,2.98225 0.89031,0.39069 4.57956,0.2723 4.57956,1.55443 0,1.70679 -2.56339,2.47981 -3.10782,3.95324 -0.40815,1.10458 1.35148,5.04219 -0.44752,5.24103 -1.40608,0.15541 -2.75788,-1.52716 -4.13824,-1.73065 -1.10925,-0.16353 -2.30042,0.97505 -3.25045,1.41956 -0.59572,0.27875 -1.41446,0.62234 -1.91203,-0.0217 -1.01192,-1.30992 0.76711,-3.39034 0.20102,-4.81934 -0.44314,-1.1186 -3.91865,-3.08004 -3.02875,-4.45089 0.73386,-1.1305 3.57738,-0.53671 4.68343,-1.37615 1.16826,-0.88665 1.45548,-4.13785 2.96674,-4.36045 z m 40.24509,0 c 0.80264,-0.12661 1.16436,1.06378 1.40664,1.60868 0.46599,1.04803 0.9223,2.46481 2.03243,2.98897 0.90197,0.42588 4.56613,0.20593 4.56613,1.54771 0,1.68935 -2.59696,2.64111 -3.1011,4.19457 -0.35695,1.0999 1.37886,4.76324 -0.45424,5.02089 -1.39402,0.19594 -2.76036,-1.55874 -4.13825,-1.7508 -1.07263,-0.14952 -2.31499,0.99453 -3.25045,1.4211 -0.57457,0.262 -1.38263,0.62953 -1.84381,-0.0243 -0.94705,-1.34257 0.7362,-3.43864 0.17312,-4.93148 -0.45107,-1.19587 -3.44431,-2.79505 -3.00034,-4.15065 0.43776,-1.33665 3.81489,-0.79225 4.83227,-1.60197 1.09141,-0.86863 1.30831,-4.09098 2.7776,-4.32273 z m -75.010405,8.61601 c 0.949005,-0.01 1.862285,0.096 2.326475,0.56017 0.79653,0.79654 0.42426,2.78299 0.42426,3.80959 v 10.84791 c 0,1.63749 0.86936,7.20008 -0.85421,8.0052 -0.879233,0.41073 -2.170058,0.19689 -3.114538,0.19689 -1.23824,0 -3.877443,0.4918 -4.830713,-0.46147 -0.8511,-0.85109 -0.460954,-2.94175 -0.460954,-4.03645 v -10.58333 c 0,-1.61557 -0.864509,-7.26802 0.854211,-8.04292 0.86652,-0.39068 2.185399,-0.15917 3.114539,-0.15917 0.607235,0 1.591925,-0.12643 2.54093,-0.13642 z m 24.501865,9.68209 c 1.63473,0.025 3.20821,0.25808 3.64164,0.88781 0.8453,1.22816 0.27181,4.25704 0.27181,5.70611 0,1.40644 0.7723,6.50905 -0.83302,7.02903 -1.39837,0.45296 -6.96852,0.71699 -7.90133,-0.52917 -1.01363,-1.35414 -0.52606,-4.11976 -0.52606,-5.70611 0,-1.7381 -0.84261,-6.38424 1.33738,-7.02903 0.67872,-0.20075 2.37484,-0.38368 4.00958,-0.35864 z" /></g></g></svg>
