<svg xmlns="http://www.w3.org/2000/svg" id="svg1" width="1024" height="544" viewBox="0 0 1024 544"><g id="g1"><path id="path1" d="M341.734 512.918c-9.973-2.365-19.068-10.133-23.864-20.382l-2.978-6.365.08-208.59c.044-114.724.35-210.05.68-211.835 1.233-6.671 6.615-16.19 12.295-21.746 6.479-6.338 13.994-10.32 22.553-11.951 4.39-.836 50.29-1.064 171-.846l165 .297 5.768 2.703c6.993 3.277 15.42 11.492 18.77 18.297l2.462 5 .26 210.462c.283 230.673.651 215.36-5.427 225.732-3.733 6.37-13.386 14.782-20.048 17.471L682.5 513.5l-168.5.155c-96.004.089-170.12-.228-172.266-.737m239.768-48.066c4.103-2.251 6.438-5.017 8.05-9.536 1.77-4.964 2.096-150.387.351-156.816-1.37-5.048-6.257-10.226-10.859-11.504-2.152-.598-28.261-.987-66.478-.99-60.752-.005-63.076.063-67 1.98-2.236 1.091-5.191 3.646-6.566 5.676l-2.5 3.691v78.573c0 76.776.046 78.652 2 81.97 2.474 4.2 6.2 7.05 10.623 8.126 1.857.452 31.727.745 66.377.65 56.42-.154 63.314-.344 66.002-1.82m-121.847-34.68c-1.299-1.436-1.655-3.902-1.655-11.466 0-11.62.09-11.706 12.28-11.706 11.376 0 12.047.742 11.572 12.79-.468 11.852-.815 12.21-11.82 12.21-7.18 0-9.015-.323-10.377-1.829m44 0c-1.285-1.42-1.655-3.865-1.655-10.93 0-11.885.349-12.242 11.949-12.242 11.306 0 11.551.27 11.551 12.731 0 11.797-.463 12.269-12.036 12.269-6.63 0-8.463-.342-9.809-1.829m43.786.409c-2.728-1.995-3.472-17.359-1.021-21.099 1.538-2.347 2.129-2.482 10.903-2.482 5.882 0 9.716.44 10.477 1.2.777.777 1.2 4.814 1.2 11.465 0 9.125-.215 10.38-1.934 11.3-2.966 1.587-17.313 1.306-19.625-.384M459.75 386.92c-1.487-.866-1.75-2.562-1.75-11.27 0-6.639.423-10.673 1.2-11.45 1.449-1.449 18.57-1.631 20.8-.222 2.31 1.46 2.759 18.215.577 21.544-1.525 2.328-2.15 2.476-10.35 2.448-4.8-.017-9.514-.49-10.477-1.05m43.821-.491c-1.981-1.982-2.288-20.312-.371-22.229.76-.76 4.595-1.2 10.477-1.2 8.744 0 9.37.14 10.884 2.453 2.25 3.433 1.324 19.426-1.232 21.295-2.62 1.917-17.766 1.672-19.758-.32m42.986-.652C545.46 384.213 545 381.172 545 375.5c0-11.79.7-12.5 12.357-12.5 5.856 0 9.683.44 10.443 1.2.777.777 1.2 4.814 1.2 11.465 0 12.346.011 12.335-12.378 12.335-7.659 0-8.664-.222-10.065-2.223m-86.05-45.78c-2.455-.422-3.057-1.136-3.79-4.5-1.05-4.815-.313-23.301.98-24.595.544-.543 23.605-.813 56.362-.66l55.441.258.278 14.27c.245 12.633.083 14.346-1.413 14.92-1.978.76-103.55 1.05-107.858.308m171.106-69.281c5.594-5.127 5.602-9.277.05-24.966-2.483-7.013-4.09-12.75-3.573-12.75 1.806 0 4.903-6.532 4.906-10.35.003-3.073-.706-4.56-3.512-7.366l-3.515-3.515.265-27.565.266-27.564 9.464-4.074c6.84-2.944 9.884-4.822 10.98-6.774 3.09-5.505 2.602-5.77-66.944-36.379-35.475-15.614-65.737-28.394-67.249-28.4-1.511-.007-6.686 1.749-11.5 3.902C496.438 87.07 470 98.734 442.5 110.838s-52.175 22.98-54.834 24.168c-5.956 2.664-8.666 5.271-8.666 8.339 0 3.428 1.889 4.634 19 12.134 39.592 17.353 84.734 37.264 97 42.782 8.842 3.979 14.88 6.101 17.5 6.152 2.72.053 7.36-1.415 14.5-4.587C553.003 188.273 611.983 163 612.94 163c.718 0 1.06 7.939 1.06 24.606v24.606l-2.428 1.91c-5.098 4.01-5.639 12.356-1.116 17.236l2.332 2.516-4.394 12.311c-4.755 13.322-5.184 16.386-2.914 20.776 2.87 5.55 5.973 7.039 14.67 7.039 7.512 0 8.046-.153 11.463-3.284M542.76 254.47c30.886-4.497 51.044-13.902 54.207-25.292 1.07-3.854 1.47-44.178.438-44.178-.327 0-18.947 7.875-41.377 17.5S514.106 220 512.712 220c-2.543 0-10.621-3.305-42.212-17.267C439.466 189.016 427.945 184 427.47 184c-.259 0-.47 10.147-.47 22.55 0 17.5.317 23.154 1.415 25.25 6.135 11.711 29.749 20.555 64.585 24.187 11.344 1.183 36.474.417 49.76-1.517" style="fill:#7c24d9;fill-opacity:1"/></g></svg>