<svg xmlns="http://www.w3.org/2000/svg" xml:space="preserve" id="svg1" width="530.902" height="340.943" viewBox="0 0 140.468 90.208"><g id="layer1" transform="translate(26.163 -10.705)scale(.33314)"><g id="g1" style="display:inline" transform="translate(-64.416 -30.873)scale(1.47955)"><path id="path1" d="M133.589 42.588a8.6 8.6 0 0 0-1.606.1c-4.63.762-9.21 2.344-13.759 3.481-9.97 2.493-19.926 5.048-29.898 7.54-3.534.884-7.049 1.829-10.583 2.712-1.173.294-3.231.414-3.921 1.55-1.085 1.783-.312 5.825-.312 7.876v41.804c0 4.293-.332 8.72.38 12.965 3.188 19.005 16.976 32.83 32.428 43.127 6.264 4.175 12.853 7.815 19.58 11.178 2.036 1.019 5.304 3.436 7.672 3.003 2.92-.535 6.142-2.645 8.731-4.045 4.462-2.411 8.973-4.715 13.23-7.49 15.83-10.32 31.33-23.236 35.606-42.598 2.493-11.287 1.17-23.68 1.17-35.19V66.905c0-2.275.85-6.698-.271-8.702-.686-1.224-2.47-1.408-3.697-1.715-3.442-.86-6.873-1.768-10.319-2.608-10.694-2.607-21.335-5.438-32.014-8.108-3.478-.869-8.495-3.09-12.417-3.184m-.813 15.948c2.159 0 4.596 1.428 6.615 2.108 5.508 1.854 10.915 4 16.404 5.906a696 696 0 0 1 10.583 3.781c1.068.39 3.06.652 3.692 1.705.68 1.133-.76 1.779-1.575 2.118-1.572.656-5.512 1.517-6.001 3.347-.783 2.933-.774 9.464 0 12.4.268 1.018 1.259 1.586 1.442 2.67.269 1.591-1.14 2.524-1.047 3.972.132 2.056 2.432 5.732 1.365 7.634-1.067 1.9-5.977 1.562-6.708-.498-.78-2.199 1.413-5.14 1.44-7.404.019-1.666-1.244-2.743-.466-4.499 1.828-4.126.98-9.505.98-14.023-2.486-.217-5.026-1.377-7.409-2.11-4.321-1.328-8.648-2.64-12.965-3.982-1.877-.583-5.823-2.696-7.612-1.344-2.695 2.037 2.087 3.338 3.38 3.74 5.913 1.837 11.837 3.632 17.726 5.548-3.554 2.872-9.772 4.126-14.023 5.821-1.617.645-3.785 1.914-5.556 1.792-2.633-.18-5.76-1.879-8.202-2.85-4.625-1.839-9.336-3.535-14.023-5.21-3.9-1.394-7.791-2.894-11.642-4.42-.947-.376-3.806-.946-3.264-2.485.408-1.16 3.023-1.61 4.058-1.992a775 775 0 0 1 12.435-4.504c4.696-1.646 9.338-3.447 14.023-5.12 1.929-.689 4.273-2.1 6.35-2.1m-23.018 23.98c5.22 2.325 10.794 4.002 16.14 6.035 2.188.832 5.287 2.592 7.672 2.365 2.115-.2 4.393-1.534 6.35-2.315 5.134-2.047 10.499-4.811 15.875-6.085 0 3.175-.015 6.35 0 9.525.008 1.721.4 3.075-.85 4.487-2.541 2.872-6.94 3.927-10.527 4.742-8.114 1.842-17.11 1.59-25.135-.528-3.132-.827-7.184-2.084-8.998-4.997-1.297-2.083-.792-5.063-.792-7.408 0-1.77-.423-4.182.265-5.821m.439 23.505c1.4-.048 2.754.035 3.333.557 1.083.975.461 4.489.461 5.836v17.198c0 2.436 1.34 11.163-1.853 11.365-1.529.097-5.805.692-6.946-.45-1.11-1.108-.461-4.686-.461-6.152v-17.728c0-2.346-1.303-10.377 1.852-10.394.766-.004 2.214-.184 3.614-.232m42.688 2.69c2.1.62 1.868 3.054 3.278 4.413 1.114 1.073 4.475.335 5.142 1.566.665 1.229-2.635 3.25-3.045 4.339-.51 1.35 1.21 4.08.02 5.104-1.083.933-3.453-1.31-4.602-1.476-1.612-.233-3.182 2.263-4.712 1.6-1.557-.676.151-3.706-.108-4.888-.216-.987-1.392-1.766-2.053-2.457-.467-.488-1.35-1.254-1.13-2.033.323-1.136 3.609-.87 4.536-1.41 1.418-.825 2.074-3.316 2.674-4.759m-19.844.243c.828-.122 1.182 1.037 1.435 1.608.467 1.054.88 2.482 2.019 2.982.89.391 4.58.273 4.58 1.555 0 1.707-2.564 2.48-3.108 3.953-.408 1.105 1.351 5.042-.448 5.241-1.406.156-2.758-1.527-4.138-1.73-1.11-.164-2.3.975-3.25 1.42-.596.278-1.415.621-1.912-.023-1.012-1.31.767-3.39.2-4.819-.443-1.119-3.918-3.08-3.028-4.45.734-1.131 3.577-.538 4.683-1.377 1.168-.887 1.456-4.138 2.967-4.36m40.245 0c.803-.127 1.164 1.063 1.407 1.608.466 1.048.922 2.465 2.032 2.99.902.425 4.566.205 4.566 1.547 0 1.69-2.597 2.641-3.1 4.194-.358 1.1 1.378 4.764-.455 5.021-1.394.196-2.76-1.558-4.138-1.75-1.073-.15-2.315.994-3.25 1.42-.575.263-1.383.63-1.845-.024-.947-1.342.737-3.438.174-4.931-.452-1.196-3.445-2.795-3-4.15.437-1.337 3.814-.793 4.831-1.603 1.092-.868 1.309-4.09 2.778-4.322m-75.01 8.616c.949-.01 1.862.096 2.326.56.797.796.424 2.783.424 3.81v10.848c0 1.637.87 7.2-.854 8.004-.88.411-2.17.197-3.114.197-1.239 0-3.878.492-4.831-.461-.851-.851-.461-2.942-.461-4.037v-10.583c0-1.615-.865-7.268.854-8.043.867-.39 2.186-.159 3.115-.159.607 0 1.592-.126 2.54-.136m24.502 9.682c1.634.025 3.208.258 3.641.887.845 1.229.272 4.258.272 5.707 0 1.406.772 6.509-.833 7.029-1.398.453-6.969.717-7.901-.53-1.014-1.354-.526-4.12-.526-5.706 0-1.738-.843-6.384 1.337-7.029.679-.2 2.375-.383 4.01-.358" style="fill:#473992;stroke:none"/></g></g><text xml:space="preserve" id="text1" x="68.8" y="89.824" style="font-variant:normal;-inkscape-font-specification:&quot;Trajan Pro Bold&quot;;text-align:center;letter-spacing:.3175px;word-spacing:.0343958px;writing-mode:lr-tb;text-anchor:middle;fill:#473992;fill-opacity:1;stroke:none;stroke-width:.196px;direction:ltr;font-family:Trajan Pro;font-size:22.5778px;font-style:normal;font-weight:700;font-stretch:100%"><tspan id="tspan1" x="68.959" y="89.824" style="font-variant:normal;-inkscape-font-specification:&quot;Trajan Pro Bold&quot;;fill:#473992;fill-opacity:1;stroke:none;stroke-width:.196px;font-family:Trajan Pro;font-style:normal;font-weight:700;font-stretch:100%">Grad<tspan id="tspan2" style="fill:#ffe60f;fill-opacity:1;stroke:none">iator</tspan></tspan></text></svg>